<svg width="21" height="21" viewBox="0 0 21 21" fill="none" xmlns="http://www.w3.org/2000/svg">
<g clip-path="url(#clip0_481_138)">
<path d="M7 14V16.45C7 17.4301 7 17.9201 7.19074 18.2945C7.35852 18.6238 7.62623 18.8915 7.95552 19.0593C8.32986 19.25 8.81991 19.25 9.8 19.25H16.45C17.4301 19.25 17.9201 19.25 18.2945 19.0593C18.6238 18.8915 18.8915 18.6238 19.0593 18.2945C19.25 17.9201 19.25 17.4301 19.25 16.45V9.8C19.25 8.81991 19.25 8.32986 19.0593 7.95552C18.8915 7.62623 18.6238 7.35852 18.2945 7.19074C17.9201 7 17.4301 7 16.45 7H14M4.55 14H11.2C12.1801 14 12.6701 14 13.0445 13.8093C13.3738 13.6415 13.6415 13.3738 13.8093 13.0445C14 12.6701 14 12.1801 14 11.2V4.55C14 3.56991 14 3.07986 13.8093 2.70552C13.6415 2.37623 13.3738 2.10852 13.0445 1.94074C12.6701 1.75 12.1801 1.75 11.2 1.75H4.55C3.56991 1.75 3.07986 1.75 2.70552 1.94074C2.37623 2.10852 2.10852 2.37623 1.94074 2.70552C1.75 3.07986 1.75 3.56991 1.75 4.55V11.2C1.75 12.1801 1.75 12.6701 1.94074 13.0445C2.10852 13.3738 2.37623 13.6415 2.70552 13.8093C3.07986 14 3.56991 14 4.55 14Z" stroke="#ED3B0F" stroke-width="2" stroke-linecap="round" stroke-linejoin="round"/>
</g>
<defs>
<clipPath id="clip0_481_138">
<rect width="21" height="21" fill="white"/>
</clipPath>
</defs>
</svg>
